<?xml version="1.0" standalone="no"?>
<!DOCTYPE svg PUBLIC "-//W3C//DTD SVG 1.1//EN" "http://www.w3.org/Graphics/SVG/1.1/DTD/svg11.dtd" >
<svg xmlns="http://www.w3.org/2000/svg">
<metadata></metadata>
<defs>
<font id="chocolateboxregular" horiz-adv-x="342" >
<font-face units-per-em="2048" ascent="1638" descent="-410" />
<missing-glyph horiz-adv-x="526" />
<glyph horiz-adv-x="2048" />
<glyph horiz-adv-x="2048" />
<glyph unicode="&#xd;" horiz-adv-x="2048" />
<glyph unicode=" "  horiz-adv-x="526" />
<glyph unicode="&#x09;" horiz-adv-x="526" />
<glyph unicode="&#xa0;" horiz-adv-x="526" />
<glyph unicode="!" d="M41 139q0 27 16.5 49.5t42 40t55 27.5t56.5 10q53 0 71.5 -39t18.5 -90t-50 -92t-104 -41q-53 0 -79.5 41t-26.5 94zM88 1296q0 63 2 126t11.5 113t32 81t61.5 31q27 0 42 -8.5t22 -42t8 -104.5t1 -196q0 -381 -25.5 -601t-25.5 -294q0 -20 -15.5 -36.5t-31.5 -16.5 t-28.5 12.5t-12.5 32.5q0 80 -20.5 306.5t-20.5 596.5z" />
<glyph unicode="&#x22;" horiz-adv-x="602" d="M41 1696q23 -6 52.5 -8t53.5 -2q23 0 54.5 3t54.5 7l-14 -170q-4 -39 -30 -65.5t-65 -26.5q-45 0 -67.5 30.5t-26.5 71.5zM346 1696q23 -6 52.5 -8t54.5 -2q23 0 54.5 3t53.5 7l-14 -170q-2 -39 -28.5 -65.5t-65.5 -26.5q-45 0 -69 30.5t-26 71.5z" />
<glyph unicode="$" horiz-adv-x="737" d="M41 74q0 43 3 87t3 85q0 10 7 16t14 6q14 0 31.5 -36.5t43.5 -59.5q29 -27 68 -43t80 -25l33 324q-45 20 -92.5 44t-84 57.5t-60.5 80.5t-24 115q0 109 80 194t242 101l18 184h84l-18 -180q31 -2 65.5 -7t65.5 -16.5t50.5 -27t19.5 -37.5v-139q0 -25 -13 -25 q-14 0 -38.5 32t-61.5 58q-47 35 -100 47l-31 -303q47 -23 94 -48.5t86 -59t63.5 -80.5t24.5 -113q0 -84 -30.5 -141.5t-78.5 -95t-107.5 -57t-115.5 -23.5l-14 -150h-84l15 150q-37 2 -79 8t-78 16.5t-58.5 25.5t-22.5 36zM236 784q0 -47 31.5 -79.5t78.5 -59.5l29 275 q-59 -4 -99 -46.5t-40 -89.5zM375 98q51 6 99 43t48 92t-33.5 91t-85.5 65z" />
<glyph unicode="%" horiz-adv-x="1249" d="M41 1239q0 88 24.5 163t68.5 130t107.5 87t141.5 32q59 0 110.5 -11.5t100.5 -23.5t99 -23.5t110 -11.5q78 0 151.5 30.5t159.5 30.5h66l-1039 -1644h-67l1007 1593q-41 -4 -77.5 -16t-73.5 -25.5t-73 -22.5t-73 -9q-51 0 -96 4t-90 10q47 -61 73.5 -146.5t26.5 -177.5 q0 -88 -25.5 -163.5t-71.5 -132t-110.5 -88t-142.5 -31.5q-82 0 -140 36.5t-95 98t-54.5 142.5t-17.5 169zM217 1292q0 -70 7 -142.5t25.5 -132t48.5 -97t73 -37.5q86 0 122.5 73.5t36.5 210.5q0 68 -9 138.5t-29.5 128t-53.5 93.5t-80 36q-84 0 -112.5 -66.5t-28.5 -204.5z M551 430q0 88 23.5 163t68.5 130t108.5 87t141.5 32q68 0 125 -36t100 -97.5t66.5 -141.5t23.5 -168t-25.5 -163.5t-71.5 -132t-110.5 -88t-142.5 -31.5q-82 0 -140.5 36.5t-95 98t-54 142.5t-17.5 169zM727 483q0 -70 7 -142.5t25.5 -131.5t48.5 -97t73 -38 q86 0 122.5 73.5t36.5 210.5q0 68 -9 138.5t-29.5 128t-53.5 93.5t-80 36q-84 0 -112.5 -66.5t-28.5 -204.5z" />
<glyph unicode="&#x26;" horiz-adv-x="1665" d="M41 367q0 184 137 315t352 225l-53 97q-37 66 -54 127t-17 137q0 55 18 120.5t63 123t118 95.5t183 38q51 0 104.5 -17.5t97.5 -52.5t72 -87t28 -122t-35 -137.5t-89.5 -124.5t-120 -101.5t-126.5 -64.5l282 -489q102 115 191 303q12 25 21.5 60.5t9.5 70.5 q0 39 -20.5 70.5t-78.5 43.5l6 15q45 -4 100.5 -8.5t108.5 -4.5q51 0 108.5 4.5t113.5 8.5l-7 -15q-76 -31 -154.5 -89t-123.5 -156q-47 -98 -106.5 -194.5t-129.5 -174.5l27 -41q86 -133 152.5 -191.5t152.5 -58.5q57 0 118.5 7t106.5 38l27 -41q-39 -35 -110.5 -73.5 t-143.5 -38.5q-135 0 -260 63.5t-205 185.5q-39 -41 -89 -86t-105.5 -81.5t-115.5 -60t-122 -23.5q-70 0 -145.5 31.5t-139 85t-105.5 123t-42 145.5zM270 457q0 -45 17.5 -96.5t48.5 -94.5t73 -71.5t93 -28.5q98 0 188 23.5t184 103.5l-315 565q-131 -53 -210 -160.5 t-79 -240.5zM551 1329q0 -63 12 -106t41 -93l88 -149q115 57 193 165.5t78 223.5q0 68 -18.5 105.5t-48.5 56t-63.5 24t-64.5 5.5q-47 0 -86 -25t-68.5 -59.5t-46 -75.5t-16.5 -72z" />
<glyph unicode="'" horiz-adv-x="296" d="M41 1696q23 -6 52.5 -8t53.5 -2q23 0 54.5 3t54.5 7l-14 -170q-4 -39 -30 -65.5t-65 -26.5q-45 0 -67.5 30.5t-26.5 71.5z" />
<glyph unicode="(" horiz-adv-x="378" d="M41 891q0 211 64.5 428t156.5 422h76q-88 -205 -110.5 -422t-22.5 -428q0 -231 24.5 -470t108.5 -462h-76q-92 225 -156.5 462.5t-64.5 469.5z" />
<glyph unicode=")" horiz-adv-x="378" d="M41 -41q84 223 108.5 461.5t24.5 470.5q0 211 -21.5 428t-111.5 422h76q92 -205 156.5 -422t64.5 -428q0 -231 -64.5 -469t-156.5 -463h-76z" />
<glyph unicode="*" horiz-adv-x="319" d="M45 1630q12 20 76 0q6 31 16.5 50.5t22.5 19.5q25 0 39 -68q66 20 77 0q6 -10 -6 -28.5t-34 -38.5q49 -45 36 -68q-6 -10 -26.5 -10t-48.5 10q-14 -61 -37 -61q-25 0 -39 63q-57 -18 -72 2q-6 10 3 27.5t30 36.5q-20 20 -31.5 37.5t-5.5 27.5z" />
<glyph unicode="," d="M41 135q0 27 16.5 49.5t42 40t55 27.5t56.5 10t44 -20.5t27.5 -49t14.5 -61.5t4 -59q0 -94 -12.5 -179.5t-57.5 -111.5l-55 31q35 47 35 96q0 27 -1 51.5t-9 50.5q-31 -10 -54 -10q-53 0 -79.5 41t-26.5 94z" />
<glyph unicode="-" horiz-adv-x="774" d="M41 573v105h692v-105h-692z" />
<glyph unicode="." d="M41 135q0 27 16.5 49.5t42 40t55 27.5t56.5 10q53 0 71.5 -39t18.5 -90t-50 -92t-104 -41q-53 0 -79.5 41t-26.5 94z" />
<glyph unicode="/" horiz-adv-x="563" d="M41 -2l426 1649h55l-426 -1649h-55z" />
<glyph unicode="0" horiz-adv-x="1308" d="M41 815q0 176 47 330.5t132 270.5t205 183.5t267 67.5q170 0 280.5 -67.5t176 -183.5t92.5 -270.5t27 -330.5t-41 -328.5t-122 -265t-201 -178.5t-277 -66q-168 0 -281 66t-180.5 178.5t-96 265t-28.5 328.5zM301 811q0 -156 14.5 -293t53.5 -238.5t107.5 -161 t178.5 -59.5q90 0 160 59.5t117 163t70.5 240.5t23.5 293t-10 294t-46 242.5t-106.5 165t-191.5 60.5q-98 0 -169 -61.5t-116 -166t-65.5 -243.5t-20.5 -295z" />
<glyph unicode="1" horiz-adv-x="595" d="M41 1354v24q0 23 55.5 48.5t110.5 70.5q31 25 57.5 51.5t48 49t39 38t25.5 15.5q16 0 26.5 -19.5t15.5 -48.5t7 -64.5t2 -68.5q-2 -152 -7 -315.5t-5 -309.5q0 -154 4 -307t12 -307q2 -63 32 -114.5t91 -80.5v-16q-59 4 -116.5 7t-114.5 3q-53 0 -106.5 -3t-104.5 -7v16 q49 25 82.5 72t35.5 111q2 156 3.5 310.5t1.5 309.5q0 154 -3.5 230.5t-5.5 128.5q0 18 -6 51t-16 65.5t-25.5 57t-36.5 24.5q-20 0 -48.5 -16.5t-43.5 -18.5q-10 0 -10 13z" />
<glyph unicode="2" horiz-adv-x="1138" d="M41 1300q0 45 30.5 106.5t94 118t159 96.5t222.5 40q106 0 190 -36t142.5 -93t90 -131t31.5 -150q0 -154 -80.5 -298t-195.5 -285.5t-241 -281.5t-218 -284h502q39 0 87 21.5t89 50.5q53 39 90 79t47 40q6 0 11.5 -10.5t5.5 -16.5q0 -41 -17.5 -89t-33.5 -95 q-14 -41 -49 -61.5t-80 -20.5h-818q-18 0 -28.5 12.5t4.5 32.5q94 133 212 267t222 272.5t175 286t71 307.5q0 51 -9.5 116.5t-42 124t-96 99.5t-170.5 41q-29 0 -65.5 -6.5t-68.5 -17.5t-54.5 -27.5t-22.5 -39.5q0 -27 18.5 -40t42 -25t42 -33.5t18.5 -69.5 q0 -92 -52 -125.5t-103 -33.5q-59 0 -105.5 48t-46.5 111z" />
<glyph unicode="3" horiz-adv-x="1193" d="M41 299q0 84 49 138.5t133 54.5q74 0 98.5 -35t24.5 -76q0 -70 -23.5 -94.5t-52 -30.5t-52 -9t-23.5 -30q0 -18 26.5 -46t67.5 -53.5t91 -44t97 -18.5q154 0 242 44t132 110.5t55.5 142.5t11.5 140q0 55 -19.5 114.5t-57.5 108.5t-95.5 81.5t-133.5 32.5q-70 0 -112.5 -9 t-68 -21.5t-36 -22.5t-16.5 -10q-10 -4 -21.5 0t-11.5 12q0 23 24.5 54.5t67.5 56.5q53 29 121 54.5t125 68.5q70 53 105.5 126.5t35.5 143.5q0 39 -15 83t-43 81t-70 61.5t-93 24.5q-111 0 -192.5 -23.5t-140 -53.5t-94.5 -53.5t-54 -23.5t-19 29q0 37 55.5 81t138.5 83 t180 65.5t179 26.5q213 0 318.5 -87t105.5 -218q0 -76 -25.5 -133.5t-65.5 -103.5t-91 -84l-102 -76q94 -6 161.5 -44t110.5 -94.5t63.5 -124t20.5 -133.5q0 -111 -43 -216t-126 -189t-204.5 -135.5t-277.5 -51.5q-92 0 -175 25t-146.5 69t-101.5 103t-38 129z" />
<glyph unicode="4" horiz-adv-x="1312" d="M47 506l709 1085q10 16 22.5 28.5t34.5 12.5h125q55 0 55 -47v-760v-134t2 -134q31 8 63 25.5t60 38.5q53 39 90 78.5t47 39.5q6 0 11.5 -10t5.5 -16q0 -41 -17.5 -89.5t-33.5 -95.5q-16 -41 -50 -61.5t-79 -20.5h-93q2 -57 5.5 -116.5t5.5 -118.5q2 -63 31.5 -114.5 t91.5 -80.5v-16q-59 4 -117 7t-115 3q-53 0 -106.5 -3t-104.5 -7v16q49 25 83 72t36 111q2 61 3 123.5t1 123.5h-713q-20 0 -44.5 14.5t-8.5 45.5zM201 549h612v270v600q0 27 -8 27q-6 0 -21 -21z" />
<glyph unicode="5" horiz-adv-x="1296" d="M41 317q0 57 38 117t114 60q49 0 92 -34t43 -108q0 -33 -14.5 -64.5t-39.5 -47.5q-20 -14 -44.5 -16.5t-24.5 -24.5q0 -25 33.5 -48.5t82 -42t99.5 -30.5t86 -12q100 0 176 32.5t126 86t74.5 122t24.5 139.5q0 115 -41 195t-105.5 131t-142 74.5t-151.5 23.5 q-57 0 -105.5 -14t-86 -30.5t-61.5 -31t-32 -14.5q-14 0 -28.5 7.5t-8.5 23.5l293 774q8 20 23.5 41t38.5 21h712q16 0 29.5 -18.5t13.5 -35.5v-178q0 -12 -4 -23.5t-12 -11.5q-14 0 -25.5 23.5t-32 52.5t-55 52.5t-96.5 23.5h-489l-207 -526q106 59 248 59q90 0 184 -28.5 t171 -89t126 -151.5t49 -218q0 -106 -39 -214t-114.5 -195t-188.5 -141.5t-260 -54.5q-41 0 -120 11.5t-156.5 48.5t-135 104.5t-57.5 179.5z" />
<glyph unicode="6" horiz-adv-x="1212" d="M41 725q0 156 48 319.5t137 298t218 220.5t289 86q53 0 114.5 -13.5t114 -43t86 -79t33.5 -122.5q0 -51 -46 -99.5t-97 -48.5q-53 0 -93 41t-40 82q0 47 16.5 69.5t34.5 34t34.5 17.5t16.5 16q0 20 -18.5 33.5t-45 21t-56 9.5t-54.5 2q-117 0 -200.5 -64.5t-136 -161 t-77 -207t-24.5 -204.5v-47q31 39 66.5 75.5t80.5 65.5t102.5 46.5t133.5 17.5q113 0 205 -39t155.5 -110t98 -168t34.5 -212t-32.5 -222.5t-100 -189t-172 -131t-245.5 -49.5q-285 0 -432.5 195.5t-147.5 560.5zM305 528q0 -100 22.5 -188t63.5 -154.5t96.5 -105.5 t120.5 -39q66 0 125.5 39t105.5 105.5t72.5 155.5t26.5 187q0 100 -20.5 186.5t-57.5 149t-89 98t-118 35.5q-78 0 -142.5 -35.5t-110.5 -99t-70.5 -148.5t-24.5 -186z" />
<glyph unicode="7" horiz-adv-x="1132" d="M41 1401q0 -12 8 -22.5t14 -10.5q29 0 50.5 24.5t49 55.5t66 55.5t99.5 24.5h555q-125 -158 -232.5 -324t-184.5 -338t-121 -350t-44 -360v-47t3 -51.5t10.5 -41t19.5 -16.5h176q10 0 15 17.5t8.5 42t3.5 52v48.5q0 170 18 354t75.5 369.5t166 364.5t288.5 341q6 6 7 13 q0 14 -17.5 27t-36.5 13h-893q-16 0 -29.5 -18t-13.5 -35q0 -53 -30.5 -99t-30.5 -89z" />
<glyph unicode="8" horiz-adv-x="1212" d="M41 397q0 135 92 251t240 171q-119 61 -190.5 172t-71.5 223q0 115 48 199t127 138.5t180.5 81t205.5 26.5q211 0 331.5 -98.5t120.5 -284.5q0 -74 -29.5 -129t-78.5 -96t-111.5 -73t-126.5 -60q78 -29 148.5 -74t125 -103.5t87 -127t32.5 -146.5q0 -92 -47 -179 t-125.5 -156t-183 -110.5t-219.5 -41.5q-166 0 -272.5 30.5t-170 86t-88 132t-24.5 168.5zM236 420q0 -160 80.5 -264.5t232.5 -104.5q76 0 151.5 18.5t137 57.5t100.5 97.5t39 137.5q0 80 -54.5 153t-134 127t-171.5 87t-168 33q-18 0 -53.5 -23.5t-71 -67.5t-62 -107.5 t-26.5 -143.5zM315 1327q0 -68 37 -132.5t94.5 -115.5t127 -81.5t133.5 -30.5q35 0 75.5 23.5t77.5 66.5t62.5 100t25.5 125q0 135 -81 220t-210 85q-63 0 -125.5 -15.5t-109.5 -47t-77 -80.5t-30 -117z" />
<glyph unicode="9" horiz-adv-x="1212" d="M41 1055q0 115 32.5 222t100.5 189t172.5 131.5t245.5 49.5q285 0 432 -196t147 -560q0 -156 -48 -319.5t-137 -298t-218 -220.5t-289 -86q-53 0 -114.5 13.5t-113.5 43t-86 79t-34 122.5q0 51 46 99.5t97 48.5q53 0 93.5 -41t40.5 -82q0 -45 -16.5 -68.5t-35 -35 t-35 -17.5t-16.5 -16q0 -20 18.5 -33.5t45 -21t56.5 -9.5t54 -2q117 0 201 64.5t136 161t77 207t25 204.5v47q-31 -39 -67 -76t-81 -65.5t-102 -46t-133 -17.5q-113 0 -205 39t-155.5 109.5t-98.5 168t-35 212.5zM274 1087q0 -100 20.5 -186t57.5 -148.5t89 -98.5t118 -36 q78 0 142.5 36t110.5 98.5t70.5 148.5t24.5 186t-22.5 188.5t-63.5 155t-96 105.5t-121 39t-125 -39t-105 -105.5t-73 -155.5t-27 -188z" />
<glyph unicode=":" d="M41 135q0 27 16.5 49.5t42 40t55 27.5t56.5 10q53 0 71.5 -39t18.5 -90t-50 -92t-104 -41q-53 0 -79.5 41t-26.5 94zM41 836q0 27 16.5 49t42 39.5t55 28t56.5 10.5q53 0 71.5 -39t18.5 -90t-50 -92.5t-104 -41.5q-53 0 -79.5 41t-26.5 95z" />
<glyph unicode=";" d="M41 135q0 27 16.5 49.5t42 40t55 27.5t56.5 10t44 -20.5t27.5 -49t14.5 -61.5t4 -59q0 -94 -12.5 -179.5t-57.5 -111.5l-55 31q35 47 35 96q0 27 -1 51.5t-9 50.5q-31 -10 -54 -10q-53 0 -79.5 41t-26.5 94zM41 836q0 27 16.5 49t42 39.5t55 28t56.5 10.5q53 0 71.5 -39 t18.5 -90t-50 -92.5t-104 -41.5q-53 0 -79.5 41t-26.5 95z" />
<glyph unicode="?" horiz-adv-x="1132" d="M41 135q0 27 16.5 49.5t42 40t55 27.5t56.5 10q53 0 71.5 -39t18.5 -90t-50 -92t-104 -41q-53 0 -79.5 41t-26.5 94zM43 1366q0 37 30.5 66.5t69.5 60.5q82 63 213 108.5t281 45.5q76 0 156.5 -16.5t146.5 -61.5t109 -125t43 -205q0 -127 -62.5 -211t-158 -145.5 t-205 -107.5t-204.5 -96t-157.5 -114.5t-62.5 -163.5q0 -20 -15.5 -36.5t-31.5 -16.5t-28.5 12.5t-12.5 32.5q0 86 31.5 152.5t82.5 119t118 93.5t134 80q61 35 120.5 69.5t106 81.5t75 111.5t28.5 156.5q0 72 -32 124.5t-80 86t-107.5 50t-114.5 16.5q-115 0 -192.5 -33 t-128 -71.5t-78 -71.5t-45.5 -33q-12 0 -20.5 14.5t-8.5 26.5z" />
<glyph unicode="@" horiz-adv-x="1699" d="M41 854q0 176 63.5 330.5t173 270.5t257 182.5t315.5 66.5t315.5 -66.5t257 -182.5t173 -270.5t63.5 -330.5q0 -72 -11.5 -139.5t-31.5 -130.5q-29 -86 -57 -125q-96 -160 -244 -160q-51 0 -101.5 2t-96.5 14.5t-85 40t-63 76.5q-53 -35 -121 -65.5t-123 -30.5 q-53 0 -102.5 18.5t-88 51t-62 77.5t-23.5 97q0 96 54 151t132 92t167 66t163 72v180q0 63 -30 102t-69 39q-33 0 -64.5 -16.5t-56 -41t-40 -54t-15.5 -58.5q0 -18 6 -38.5t6 -39.5q0 -18 -19 -30.5t-36 -12.5q-25 0 -45 7.5t-41 17.5q-29 16 -49 36.5t-20 49.5 q0 57 38.5 105t98.5 83q57 33 126.5 53.5t145.5 20.5q53 0 97 -6t77 -29.5t51.5 -73t18.5 -135.5v-78q2 -125 6 -249.5t10 -249.5q2 -72 23.5 -119t75.5 -47q23 0 45 23.5t41.5 56t36 66.5t22.5 57q39 125 39 274q0 162 -47 303t-127 246.5t-188.5 167t-231.5 61.5 t-231.5 -61.5t-188.5 -167t-127 -246.5t-47 -303t47 -303t127 -246.5t188.5 -167t231.5 -61.5q45 0 98 12t102.5 29.5t89.5 36t58 30.5q10 6 34.5 8.5t43 -4t18.5 -22.5t-39 -47q-82 -66 -188 -90.5t-217 -24.5q-168 0 -315.5 66.5t-257 182.5t-173 270.5t-63.5 330.5z M659 623q0 -49 36 -103.5t118 -54.5q41 2 81 29.5t69 64.5q2 70 2 155v154q-49 -25 -102.5 -51t-98.5 -56t-75 -63.5t-30 -74.5z" />
<glyph unicode="A" horiz-adv-x="1875" d="M41 0l10 12q72 23 131.5 78t93.5 139l496 1198q6 18 6 40q0 57 -44 117q-46 63 -111 108l-5 14q51 -4 121 -7t125 -3h56l94 -240l268 -672q84 6 170 6q52 0 104 -2q138 -6 271 -26l8 -41q-52 2 -103 2q-84 0 -163 -6q-127 -10 -246 -35l184 -463q29 -74 74 -126t111 -79 v-14q-115 18 -226 18q-121 0 -241 -18v12q0 14 10 29.5t22.5 32t22.5 35t10 36.5t-5 41t-11 39l-152 406q-186 -61 -340.5 -157.5t-277.5 -217.5q-20 -20 -46 -50t-47.5 -57.5t-37 -49t-15.5 -27.5q0 -29 31 -60v-12q-82 12 -166 12q-92 0 -182 -12zM485 457 q121 121 272.5 191.5t319.5 105.5l-223 596h-6z" />
<glyph unicode="B" horiz-adv-x="1796" d="M41 1051q0 133 57.5 252.5t166 211t266 144.5t358.5 53q37 0 99.5 -3t135 -15.5t148.5 -37t136 -69.5t98 -112.5t38 -163.5q-2 -135 -72.5 -230.5t-158.5 -152.5q76 -18 150.5 -47t127.5 -70q84 -66 124 -156t40 -188t-57.5 -213t-165.5 -184q-74 -45 -171 -55.5 t-185 -10.5q-39 0 -95.5 1t-114 2t-106.5 2t-74 1q-53 0 -119.5 -3t-117.5 -7v18q49 25 92 94.5t47 133.5q8 156 9 287t1 286q0 16 -1 32.5t1 41.5v138.5v116.5t-2 117.5t-6 137.5q-4 49 -28 94q84 -4 133 -8t73.5 -9t31.5 -10.5t7 -9.5q0 -8 -5 -29.5t-7 -35.5 q-6 -117 -6 -207v-234q45 0 109.5 -3t97.5 -3q43 0 89 18.5t83 61.5t61.5 111.5t24.5 171.5q0 82 -54.5 142t-130 99t-153.5 57.5t-127 18.5q-164 0 -290 -48t-212 -124t-130 -168t-44 -178q0 -106 27.5 -153.5t74.5 -47.5q49 0 72 28t23 67q0 82 -25 116.5t-53 57.5 q29 0 60.5 -13.5t60 -37t47 -56.5t18.5 -74q0 -123 -72.5 -173t-158.5 -50q-43 0 -86 17.5t-79 53.5t-58.5 87t-22.5 119zM877 854q0 -137 4 -289q3 -101 3 -196q0 -47 -1 -93q0 -55 13 -89.5t47 -56t93.5 -30t151.5 -8.5q82 0 154.5 22.5t117.5 61.5q59 49 76.5 116.5 t17.5 119.5q0 82 -25.5 159.5t-81.5 139t-144.5 99.5t-210.5 38q-12 0 -40 1t-61 3t-64.5 2h-49.5z" />
<glyph unicode="C" horiz-adv-x="1640" d="M41 844q0 178 64.5 340t182.5 282.5t282.5 192.5t365.5 72q33 0 94.5 -5.5t135 -20.5t150.5 -44t140.5 -76t103 -117.5t39.5 -167.5q0 -182 -224 -305t-662 -172l-25 35q147 18 270 60.5t211 102.5t136.5 135t48.5 159q0 76 -31 134t-82 98t-119.5 61.5t-144.5 21.5h-12 q-159 0 -287 -53q-133 -55 -227.5 -153.5t-144.5 -233.5t-50 -293t56.5 -303t150.5 -257t221 -178.5t268 -66.5q61 0 138 10.5t153 32t145.5 55t118.5 80.5q31 31 51.5 61.5t28.5 30.5q12 0 12 -12q0 -10 -8 -30.5t-20 -47t-25.5 -53t-23.5 -49.5q-14 -31 -33 -48.5 t-43 -29.5q-127 -63 -258 -87.5t-287 -24.5q-178 0 -334.5 67.5t-273.5 185t-184.5 275.5t-67.5 336z" />
<glyph unicode="D" horiz-adv-x="2164" d="M41 1065q0 133 88 254t233.5 213t335 146.5t389.5 54.5q227 0 418 -75t328 -199t214 -286.5t77 -338.5q0 -203 -71 -359t-200 -262.5t-310 -161.5t-404 -57q-106 0 -227 10t-228 10q-53 0 -124 -3t-122 -7v19q25 12 51.5 34.5t50 51t39 61.5t15.5 66q3 125 3 238v56 q-1 138 -1 293v139.5v122t-2 123t-6 138.5q-4 49 -29 94q84 -4 133 -8.5t74 -9.5t32 -10t7 -9q0 -8 -5 -29.5t-7 -36.5q-4 -74 -7.5 -135t-5.5 -119.5t-3 -120t-1 -133.5q0 -154 4 -307t13 -307q0 -14 4 -35q61 -47 171.5 -62.5t274.5 -15.5q137 0 260 37t213 112 t143.5 189.5t53.5 270.5q0 170 -60.5 333.5t-169 294.5t-262 211t-338.5 80q-184 0 -343.5 -46t-276.5 -119.5t-183.5 -164t-66.5 -176.5q0 -109 27.5 -154.5t74.5 -45.5q49 0 72 27.5t23 66.5q0 84 -25 118.5t-53 55.5q29 0 60.5 -13.5t60 -37t47 -56t18.5 -73.5 q0 -123 -72.5 -173.5t-158.5 -50.5q-43 0 -86 17.5t-79 53.5t-58.5 87t-22.5 119z" />
<glyph unicode="E" horiz-adv-x="1708" d="M41 1053q0 137 88 258t241.5 211t362.5 140q187 45 401 45q26 0 52 -1h86q31 0 65.5 -1t64.5 -5t50.5 -12.5t20.5 -24.5q0 -66 8 -104.5t7 -85.5q0 -18 -11 -19q-14 0 -20.5 18.5t-20.5 38.5q-25 35 -102 71t-255 36q-127 0 -248 -25q-8 -29 -10 -65.5t-4 -71.5 q-8 -125 -8 -260v-264q90 0 180 -4q45 -2 88.5 -2t85.5 2q59 2 119.5 22.5t112.5 96.5h14q-4 -51 -9 -85t-5 -90v-44v-32.5t1 -33t3 -45.5h-15q-33 63 -103.5 85.5t-135.5 26.5q-78 6 -164 7.5t-172 1.5v-7q0 -154 4 -277.5t12 -277.5q2 -57 40 -93t91.5 -55t116 -25.5 t113.5 -6.5q72 0 147.5 10.5t139.5 61.5q37 29 65.5 61.5t50 59t35.5 44t25 17.5q18 0 18 -18q0 -20 -13.5 -47t-31.5 -58.5t-35.5 -64.5t-25.5 -66q-8 -29 -26.5 -55.5t-96.5 -26.5h-310h-126t-93 1t-86 1h-106q-53 0 -123 -6t-121 -10v33q25 12 51.5 39.5t48 61.5t37 71 t15.5 69q2 78 3 144.5t1 131v131.5v144q0 74 -3 164t-8.5 183.5t-10.5 183.5t-7 168q-176 -76 -281.5 -189.5t-105.5 -222.5t27.5 -155t74.5 -46q49 0 72 28t23 67q0 84 -25 118.5t-53 55.5q29 0 60.5 -13.5t60 -37t47 -56.5t18.5 -74q0 -123 -72.5 -173t-158.5 -50 q-43 0 -86 17.5t-79 53.5t-58.5 87t-22.5 119z" />
<glyph unicode="F" horiz-adv-x="1529" d="M41 1094q0 137 88 258t241.5 211t362.5 140q187 45 401 45q26 0 52 -1h86q31 0 65.5 -1t64.5 -5t50.5 -12.5t20.5 -24.5q0 -66 8 -104.5t8 -86.5q0 -18 -12 -18q-14 0 -20.5 18.5t-20.5 38.5q-25 35 -102 71t-255 36q-127 0 -248 -25q-8 -29 -10 -65.5t-4 -71.5 q-8 -125 -8 -260v-264q90 0 180 -4q45 -2 88.5 -2t85.5 2q59 2 119.5 22.5t112.5 95.5h14q-4 -51 -9 -84.5t-5 -89.5v-44v-32.5t1 -33t3 -45.5h-15q-33 63 -103.5 85.5t-135.5 26.5q-78 6 -164 7.5t-172 1.5v-7q0 -78 1 -162.5t3 -171.5t5 -170t7 -157q2 -63 32 -114.5 t91 -80.5v-16q-59 4 -116.5 7t-114.5 3q-53 0 -106.5 -3t-104.5 -7v16q49 25 83 72t36 111q2 155 4 321q1 83 1 169.5t-1 176.5q0 74 -3 164t-8.5 183.5t-10.5 183.5t-7 168q-176 -76 -281.5 -189.5t-105.5 -222.5t27.5 -155t74.5 -46q49 0 72 28t23 67q0 84 -25 118.5 t-53 55.5q29 0 60.5 -13.5t60 -37t47 -56.5t18.5 -74q0 -123 -72.5 -173t-158.5 -50q-43 0 -86 17.5t-79 53.5t-58.5 87t-22.5 119z" />
<glyph unicode="G" horiz-adv-x="1685" d="M41 844q0 178 64.5 340t182.5 282.5t282.5 192.5t365.5 72q33 0 94.5 -5.5t135 -20.5t150.5 -44t140.5 -76t103 -117.5t39.5 -167.5q0 -182 -224 -305t-662 -172l-25 35q147 18 270 60.5t211 102.5t136.5 135t48.5 159q0 76 -31 134t-82 98t-119.5 61.5t-144.5 21.5h-12 q-159 0 -287 -53q-133 -55 -227.5 -153.5t-144.5 -233.5t-50 -293t51 -306.5t142.5 -262t213.5 -182t263 -68.5q78 0 179 30.5t200 67.5q37 14 44 54t9 81q-2 68 -3 134.5t-5 125.5q-2 43 -7.5 76t-17.5 58.5t-34.5 49t-59.5 48.5v14q51 -4 107.5 -8t111.5 -4q53 0 96 5 t99 9l-3 -14q-31 -16 -48 -44t-25 -60.5t-10.5 -68.5t-4.5 -69q-2 -53 -4 -98t-3 -89t-1 -91v-105q0 -12 -4 -36.5t-16 -30.5q-33 -14 -77 -26.5t-83 -29.5q-109 -43 -221.5 -60t-243.5 -17q-178 0 -334.5 67.5t-273.5 185t-184.5 275.5t-67.5 336z" />
<glyph unicode="H" horiz-adv-x="2320" d="M41 1155q0 90 43 189.5t119 182.5t176 136t213 53q16 0 75.5 -3t117 -20.5t89.5 -56.5q15 -18 16 -43q0 -29 -20 -67q-14 2 -29.5 15t-42 28.5t-70.5 29t-116 13.5q-100 0 -175 -41t-125 -100.5t-74.5 -129t-24.5 -127.5q0 -109 27.5 -154.5t74.5 -45.5q49 0 72 27.5 t23 66.5q0 84 -25 119t-53 55q29 0 60.5 -13.5t60 -37t47 -56t18.5 -73.5q0 -123 -72.5 -173t-158.5 -50q-43 0 -86 17t-79 53t-58.5 87t-22.5 119zM449 0v16q49 25 82.5 72t35.5 111q2 156 3 310.5t1 309.5v217v31q0 88 -1 172t-7 193q-4 49 -28 94q84 -4 133 -8.5 t73.5 -9.5t31.5 -10t7 -9q0 -8 -5 -29.5t-7 -36.5q-4 -70 -7 -129t-5 -115.5t-3 -112.5t-1 -122v-119q0 -68 1 -135t3 -135q201 158 448.5 269.5t528.5 187.5q-2 115 -7.5 227.5t-9.5 220.5q-4 63 -23.5 121.5t-95.5 110.5v14q51 -4 107.5 -8t112.5 -4q51 0 106 5t111 7v-14 q-63 -33 -86 -103.5t-27 -136.5q-6 -94 -7 -193.5t-1 -201.5q90 20 181 38.5t185 32.5l-12 -36q-92 -18 -181 -42t-173 -51v-172q0 -154 4 -307t12 -307q4 -66 33 -117t90 -78v-16q-59 4 -116.5 7t-114.5 3q-53 0 -106.5 -3t-104.5 -7v16q49 25 82.5 71t36.5 112 q4 156 4 310.5v309.5v117q-283 -106 -524.5 -256t-446.5 -332q2 -35 3 -69.5t3 -69.5q2 -63 31.5 -114.5t91.5 -80.5v-16q-59 4 -116.5 7t-115.5 3q-53 0 -106 -3t-104 -7z" />
<glyph unicode="I" horiz-adv-x="929" d="M41 1100q0 90 43 189.5t119 182t176 136t213 53.5q16 0 75.5 -3t117 -20.5t89.5 -56.5q15 -18 16 -44q0 -29 -20 -67q-14 2 -29.5 15.5t-42 29t-70.5 28.5t-116 13q-100 0 -175 -40.5t-125 -100t-74.5 -129t-24.5 -127.5q0 -106 27.5 -153.5t74.5 -47.5q49 0 72 28t23 67 q0 82 -25 116.5t-53 57.5q29 0 60.5 -13.5t60 -37t47 -56.5t18.5 -73q0 -123 -72.5 -173.5t-158.5 -50.5q-43 0 -86 17.5t-79 53.5t-58.5 87t-22.5 119zM444 0v16q49 25 83 72t36 111q2 78 3 168t1 182v182v168v158q0 90 -1 173t-7 191q-4 49 -29 95q84 -4 133.5 -8.5 t74 -9.5t31.5 -10t7 -9q0 -8 -5 -30t-7 -36q-4 -74 -7 -135t-5 -119.5t-3 -120t-1 -133.5q0 -78 1 -167t3 -180t5 -181t7 -166q2 -63 31.5 -114.5t91.5 -80.5v-16q-59 4 -117 7t-115 3q-53 0 -106 -3t-105 -7z" />
<glyph unicode="J" horiz-adv-x="929" d="M41 1100q0 90 43 189.5t119 182t176 136t213 53.5q16 0 75.5 -3t117 -20.5t89.5 -56.5q16 -18 16 -44q0 -29 -20 -67q-14 2 -29.5 15.5t-42 29t-70.5 28.5t-116 13q-100 0 -175 -40.5t-125 -100t-74.5 -129t-24.5 -127.5q0 -106 27.5 -153.5t74.5 -47.5q49 0 72 28t23 67 q0 82 -25 116.5t-53 57.5q29 0 60.5 -13.5t60 -37t47 -56.5t18.5 -73q0 -123 -72.5 -173.5t-158.5 -50.5q-43 0 -86 17.5t-79 53.5t-58.5 87t-22.5 119zM190 -205q0 4 1.5 8t11.5 9q96 39 172 84t117 153q27 68 42 152t22 173t9 181t2 174v170v158q0 90 -1 172.5t-7 191.5 q-4 49 -29 95q84 -4 133.5 -8.5t74 -9.5t31.5 -10t7 -9q0 -8 -5 -30t-7 -36q-4 -74 -7 -135t-5 -119.5t-3 -120t-1 -133.5v-75t2 -111q0 -203 -11.5 -372t-64.5 -288q-39 -88 -108.5 -139t-139.5 -84q-53 -25 -99 -42t-94 -17q-12 0 -27.5 4t-15.5 14z" />
<glyph unicode="K" horiz-adv-x="2088" d="M41 1157q0 90 43 189.5t119 182.5t176 136t213 53q16 0 75.5 -3t117 -20.5t89.5 -56.5q15 -18 16 -43q0 -29 -20 -67q-14 2 -29.5 15t-42 28.5t-70.5 29t-116 13.5q-100 0 -175 -41t-125 -100.5t-74.5 -129t-24.5 -126.5q0 -106 27.5 -153.5t74.5 -47.5q49 0 72 27.5 t23 66.5q0 82 -25 117t-53 57q29 0 60.5 -13.5t60 -37t47 -56t18.5 -73.5q0 -123 -72.5 -173t-158.5 -50q-43 0 -86 17t-79 53t-58.5 87.5t-22.5 118.5zM434 4v16q49 25 83 72t36 111q4 156 4 310.5v309.5v252v158v14q0 43 -2 90t-6 103q-4 49 -29 94q84 -4 133 -8t74 -9.5 t32 -10.5t7 -9q0 -8 -5 -29.5t-7 -35.5q-4 -84 -9.5 -152t-7.5 -133q-1 -22 -1 -45t1 -46t1 -46.5t-1 -46.5q150 100 271.5 226t224.5 259q35 47 58.5 98t23.5 96q0 16 -4 31t-11 29l13 14q47 -4 99 -8t108 -4q53 0 111.5 4t117.5 8l-12 -14q-94 -33 -182.5 -103.5 t-153.5 -136.5q-94 -94 -232.5 -243.5t-339.5 -311.5q158 -6 274 -34.5t195.5 -76.5t130 -113t76.5 -144q31 -92 59.5 -174t60.5 -144.5t71 -98.5t94 -36q106 0 153.5 26.5t73.5 86.5l31 -23q-16 -113 -84 -174t-174 -61q-178 0 -303 126t-227 400q-23 59 -68 122.5 t-110.5 116t-153 87t-191.5 38.5q0 -68 2 -147.5t4 -161.5t4.5 -161.5t6.5 -145.5q4 -63 32.5 -114.5t90.5 -80.5v-16q-59 4 -117 7t-115 3q-53 0 -106.5 -3t-104.5 -7z" />
<glyph unicode="L" horiz-adv-x="1593" d="M41 1106q0 90 43 189.5t119 182.5t176 136t213 53q16 0 75.5 -3t117 -20.5t89.5 -56.5q15 -18 16 -43q0 -29 -20 -67q-14 2 -29.5 15t-42 28.5t-70.5 29t-116 13.5q-100 0 -175 -41t-125 -100.5t-74.5 -129t-24.5 -127.5q0 -109 27.5 -154.5t74.5 -45.5q49 0 72 27.5 t23 66.5q0 84 -25 118.5t-53 55.5q29 0 60.5 -13.5t60 -37t47 -56t18.5 -73.5q0 -123 -72.5 -173.5t-158.5 -50.5q-43 0 -86 17.5t-79 53.5t-58.5 87t-22.5 119zM418 20q25 12 50.5 41t46 65t34.5 74t14 70q2 156 3 315.5t1 315.5v139.5v122t-2 123t-6 137.5q-4 49 -29 95 q84 -4 133.5 -8.5t74 -9.5t31.5 -10t7 -9q0 -8 -5 -29.5t-7 -36.5q-4 -74 -7 -135t-5 -119.5t-3 -120t-1 -133.5q0 -154 4 -317.5t12 -317.5q2 -57 28.5 -94t67.5 -58.5t92.5 -29.5t102.5 -8q72 0 165 21.5t156 72.5q37 29 61.5 63.5t43 65.5t32 51.5t25.5 20.5 q10 0 12 -10.5t2 -16.5q0 -20 -11 -50t-26.5 -65.5t-32 -71.5t-24.5 -69q-8 -29 -26.5 -55.5t-55.5 -28.5q-63 -2 -131.5 -7t-132.5 -5q-76 0 -133 2t-108.5 5t-102 5t-113.5 2q-53 0 -118.5 -5t-116.5 -9z" />
<glyph unicode="M" horiz-adv-x="2414" d="M43 1139q-1 13 -1 26q0 115 48 211q53 106 148.5 180t225.5 113t279 39q211 0 366 -82t255 -213t148 -294q43 -147 42 -293v-31l279 663l100 240q53 0 99.5 3t101.5 7v-14q-63 -33 -95 -106q-24 -56 -24 -104q0 -15 2 -30l181 -1231q12 -78 62 -131t114 -80v-14 q-113 18 -226 18q-121 0 -241 -18v12q0 14 15 23.5t32.5 22t31 34t7.5 60.5l-142 1038h-12l-274 -660q0 -33 -28 -102.5t-77 -147t-114.5 -149.5t-141.5 -106l-43 45q47 43 84 82.5t63.5 95t40 135.5t13.5 201q0 233 -40 418.5t-124 315.5t-214 198.5t-308 68.5 q-88 0 -173 -30.5t-151 -84.5q-65 -56 -103 -128q-34 -66 -35 -142q0 -8 1 -16q4 -109 34 -157t77 -54q10 -1 18 -1q36 0 54 20q20 23 20 57v6q-4 82 -31 120.5t-55 59.5q29 -2 61.5 -17.5t62 -42t50 -61.5t22.5 -76q1 -11 1 -22q0 -47 -15 -80q-18 -41 -50 -63.5t-74 -29.5 q-27 -4 -55 -4q-16 0 -32 1q-43 6 -87 27.5t-82 60.5t-63.5 92t-27.5 121zM309 0l10 12q72 23 115 98.5t58 165.5l176 1252q50 -20 78 -62q18 -27 18 -79q0 -30 -6 -68l-152 -1090q-2 -10 -2 -21v-22q0 -59 25.5 -102t87.5 -68l6 -16q-20 4 -51 6t-65 3t-64.5 2t-50.5 1 q-92 0 -183 -12z" />
<glyph unicode="N" horiz-adv-x="2076" d="M-39 1051q0 170 66.5 294.5t175 207.5t246 124t276.5 41q236 0 413 -76.5t308 -201.5t218 -285t140 -326q0 154 -4 319t-12 318q-2 59 -17.5 120t-91.5 112v16q37 -2 70 -10t70 -8q53 0 107 4t110 8v-14q-63 -33 -86 -103.5t-27 -136.5q-9 -134 -9 -283v-30 q1 -166 1 -312q0 -33 -2 -99q-1 -22 -1 -44q0 -45 3 -92q10 -59 14 -139q3 -53 3 -99q0 -23 -1 -43q-2 -109 -28.5 -196.5t-83 -139t-146.5 -54.5h-8q-88 0 -213 61l14 47q38 -21 72 -21q42 0 76 32q62 58 61 267q0 113 -19.5 253t-63.5 285.5t-115.5 284t-177 246t-248 173 t-326.5 65.5q-115 0 -223.5 -41t-193.5 -111.5t-137 -167t-52 -206.5q0 -55 14 -90t37 -55.5t48.5 -29t49.5 -8.5q49 0 71.5 30t22.5 69q-2 80 -26.5 114.5t-50.5 57.5q27 -2 59.5 -15.5t60 -36t47 -56.5t19.5 -75q-1 -121 -73 -172q-70 -49 -152 -49h-6q-43 0 -91.5 18.5 t-90.5 52.5t-69.5 86t-27.5 120zM461 6v17q49 25 83 70.5t36 111.5q2 156 3 310t1 310v678q14 20 44.5 29.5t67.5 9.5v-148.5t-1 -213t-1 -210v-141.5q0 -154 4 -307t13 -307q2 -63 31.5 -114.5t91.5 -80.5v-16q-59 4 -117 7t-115 3h-43t-29.5 -1t-29 -3t-39.5 -4z" />
<glyph unicode="O" horiz-adv-x="1802" d="M41 844q0 174 64.5 327.5t175 270.5t261 187.5t322.5 78.5q-45 -78 -86 -97.5t-82 -31.5q-201 -63 -320.5 -244.5t-119.5 -437.5q0 -158 48 -305.5t133 -261t204 -181t260 -67.5t263 48t210 138t139.5 218t51.5 286q0 147 -36 290.5t-101.5 255.5t-156.5 181.5t-202 69.5 q-100 0 -175 -41t-125 -100.5t-74.5 -129t-24.5 -127.5q0 -106 27.5 -153t74.5 -47q49 0 71.5 27.5t22.5 66.5q0 82 -25.5 117t-52.5 57q27 0 60 -13.5t61.5 -37t47 -56t18.5 -73.5q0 -123 -73 -173t-159 -50q-43 0 -86 17t-78.5 53t-58 87t-22.5 119q0 90 43 189.5 t118.5 182.5t175 136t214.5 53q170 0 302 -70.5t223 -186.5t139 -264t48 -304q0 -190 -67.5 -350t-184 -276t-273.5 -179t-335 -63t-334.5 67.5t-273.5 185t-184.5 275.5t-67.5 336z" />
<glyph unicode="P" horiz-adv-x="1640" d="M41 1067q0 131 66.5 245.5t186.5 200.5t287 135.5t365 49.5q33 0 93.5 -4t128 -14.5t129 -26t98.5 -37.5q102 -63 153 -169t51 -208q0 -121 -66.5 -230.5t-156.5 -172.5q-90 -61 -186 -74.5t-184 -13.5q-20 0 -49 2t-57 8t-49.5 15t-27.5 24q-4 8 -4 14q0 18 10 18 q39 0 84 -11t84 -11q78 2 163 32.5t140 90.5q55 59 75 145t20 178v7q0 76 -41 153q-43 80 -119 131q-33 20 -102.5 42t-186.5 22q-184 0 -322.5 -48.5t-229.5 -124t-136 -167.5t-45 -178q0 -106 27.5 -153.5t74.5 -47.5q49 0 72 27.5t23 66.5q0 82 -25 117t-53 57 q29 0 60.5 -13.5t60 -37t47 -56t18.5 -73.5q0 -123 -72.5 -173t-158.5 -50q-43 0 -86 23.5t-79 65.5t-58.5 99t-22.5 125zM500 -6v16q49 25 82.5 71t35.5 112q4 156 4.5 327.5t0.5 327.5v158q0 88 -1 172t-8 192q-4 49 -28 94q102 -4 151 -9t72 -11q23 -8 22 -17 q0 -8 -5 -29.5t-7 -35.5q-4 -74 -7 -135.5t-5.5 -119.5t-3 -119.5t-0.5 -133.5q0 -154 3.5 -325t12.5 -324q4 -66 33 -117t90 -78v-16q-59 4 -116.5 7t-114.5 3q-53 0 -106.5 -3t-104.5 -7z" />
<glyph unicode="Q" horiz-adv-x="1871" d="M88 854q0 174 64.5 327.5t175 270.5t261 187.5t322.5 78.5q-45 -76 -87 -96t-81 -33q-199 -63 -319.5 -244.5t-120.5 -437.5q0 -158 48 -305t133 -261t204 -181.5t260 -67.5t262 48t211 138.5t140.5 218.5t50.5 285q0 147 -36 291t-101.5 255.5t-156.5 181t-202 69.5 q-100 0 -175 -41t-125 -100.5t-74.5 -129t-24.5 -126.5q0 -109 27.5 -155t74.5 -46q49 0 71.5 27.5t22.5 66.5q0 84 -24.5 119t-52.5 55q29 0 60.5 -13t60 -36.5t47 -56.5t18.5 -74q0 -123 -72.5 -173t-158.5 -50q-43 0 -86 17.5t-79 53t-58.5 87t-22.5 118.5q0 90 43 189.5 t118.5 182.5t176 136t213.5 53q170 0 302 -70.5t223 -186t139 -264t48 -304.5q0 -150 -42 -281t-117.5 -236t-180 -182t-229.5 -120q172 -55 341 -123t340 -128t348 -101t364 -41q92 0 178 24.5t164 87.5q18 14 28 15q6 0 7 -4q0 -10 -23 -29q-125 -111 -280.5 -173.5 t-315.5 -62.5q-131 0 -252 25t-234.5 67t-221 95t-212.5 108q-119 66 -243.5 121t-272.5 70q-178 18 -335.5 81.5t-275.5 172t-186.5 261t-68.5 349.5z" />
<glyph unicode="R" horiz-adv-x="1978" d="M41 1065q0 123 63.5 236.5t177 200.5t271.5 140.5t346 53.5q111 0 185.5 -5t125 -14.5t85 -24t67.5 -34.5q102 -63 150.5 -171t48.5 -210q0 -119 -54.5 -224.5t-144.5 -168.5q-47 -31 -96 -45q-16 -8 -41 -15q113 -41 175 -111.5t91 -162.5q27 -82 49.5 -154.5t49 -128 t59 -87t77.5 -31.5q86 0 125 24.5t62 75.5l24 -21q-12 -98 -68.5 -153t-142.5 -55q-147 0 -250.5 110.5t-185.5 353.5q-18 51 -56 107.5t-91 103.5t-125 79t-158 34h-12q-18 23 -19 45q0 20 21 47h106q234 0 318 98q83 96 82 284v9v8q0 76 -38 157q-40 85 -116 136 q-53 35 -122.5 44.5t-133.5 9.5q-184 0 -322.5 -48.5t-229.5 -124t-136 -167.5t-45 -179q0 -109 27.5 -154.5t74.5 -45.5q49 0 72 27.5t23 66.5q0 84 -25 119t-53 55q29 0 60.5 -13.5t60 -37t47 -56t18.5 -73.5q0 -123 -72.5 -173t-158.5 -50q-43 0 -86 23.5t-79 65.5 t-58.5 99t-22.5 125zM465 -49q49 25 83 72t36 110q2 156 3 328t1 327v158q0 90 -1 173t-7 192q-4 49 -29 94q100 -4 151.5 -9.5t71.5 -11.5q23 -8 23 -16t-5.5 -29.5t-7.5 -35.5q-4 -74 -7 -135.5t-5 -120t-3 -120t-1 -132.5q0 -154 4 -325t12 -325q2 -63 32 -114t91 -80 v-17q-59 4 -116.5 7.5t-114.5 3.5q-53 0 -106.5 -3t-104.5 -8v17z" />
<glyph unicode="S" horiz-adv-x="1157" d="M41 485q0 68 22.5 119t58.5 87t79 53.5t86 17.5q86 0 158.5 -50t72.5 -173q0 -41 -18.5 -74t-47 -56.5t-60.5 -37t-60 -13.5q29 23 53.5 58t24.5 116q0 39 -22.5 67t-72.5 28q-47 0 -74.5 -47.5t-27.5 -153.5q0 -86 45 -151.5t109.5 -108.5t134 -64.5t121.5 -21.5 q51 0 107 18.5t104.5 56.5t79 94t30.5 130q0 100 -52 175t-131 139.5t-171 124t-171 126t-131 147t-52 187.5q0 78 25.5 153.5t79.5 137t137 100.5t196 39q66 0 132 -17.5t132 -17.5q29 0 47.5 11.5t50.5 11.5q12 0 13 -19q0 -76 9 -146.5t9 -141.5q0 -8 -4 -21.5t-12 -13.5 q-10 0 -22.5 19.5t-27 46t-32 55t-37.5 47.5q-59 51 -140 73.5t-143 22.5q-47 0 -93 -19.5t-82 -51t-58.5 -73.5t-22.5 -88q0 -88 53.5 -159.5t132 -136t172 -127t173.5 -134t134 -158.5t56 -200v-11q0 -84 -30 -166q-32 -87 -97 -155.5t-165.5 -110.5t-237.5 -42 q-84 0 -179.5 28.5t-176.5 89t-134 154.5t-53 227z" />
<glyph unicode="T" horiz-adv-x="1599" d="M41 1206q0 111 62.5 196t165 142.5t233.5 87t268 29.5q195 0 389 -55q35 -10 72 -21.5t78 -11.5q76 0 125 14.5t125 22.5q-134 -76 -232 -197q-43 8 -70.5 22.5t-52 29t-50.5 28.5t-60 25q-78 23 -155 30.5t-148 7.5q-133 0 -245 -25.5t-192 -72.5t-125 -114.5 t-45 -153.5q0 -49 34 -77t61 -28q43 0 87 44.5t44 107.5q0 33 -10.5 55.5t-20.5 40.5q43 -18 81 -68.5t38 -109.5q0 -53 -21.5 -91t-52.5 -62.5t-66.5 -37t-64.5 -12.5q-94 0 -173 65.5t-79 188.5zM528 0v16q49 25 83 72t36 111q4 156 4 310.5v309.5v158q0 88 -1 172t-7 192 q-4 49 -29 95q84 -4 133.5 -8.5t74 -9.5t31.5 -10t7 -9q0 -8 -5 -29.5t-7 -36.5q-4 -74 -7 -135t-5 -119.5t-3.5 -120t-1.5 -133.5q0 -154 4.5 -307t12.5 -307q4 -63 32.5 -114.5t90.5 -80.5v-16q-59 4 -117 7t-115 3q-53 0 -106 -3t-105 -7z" />
<glyph unicode="U" horiz-adv-x="1767" d="M41 1182q0 88 47 182t126 171t181.5 126t214.5 49q-6 0 46.5 -4t118 -19.5t120.5 -48t55 -92.5q0 -37 -28 -73q-10 2 -29 22.5t-53.5 44t-88 43t-135.5 19.5q-104 0 -180 -44.5t-125 -108t-72.5 -136t-23.5 -129.5q0 -61 20.5 -92t57.5 -39q12 -2 23 -2q32 1 52 19 q26 24 33 63q2 14 3.5 27.5t1.5 23.5q0 53 -17.5 81.5t-36.5 51.5q27 -6 56.5 -23.5t53.5 -45.5q24 -27 38 -63q9 -25 10 -52q0 -12 -2 -25q-16 -104 -78.5 -146t-134.5 -42q-12 0 -24.5 1t-24.5 3q-76 12 -140.5 80.5t-64.5 177.5zM408 487v16q0 131 30 267 q32 144 84.5 271.5t119.5 233t132 169.5l45 10q-45 -117 -85 -225.5t-70 -218.5t-46 -228q-12 -94 -13 -201q0 -28 1 -57q4 -150 41 -237.5t95.5 -134t130 -60.5t147.5 -14q109 0 193.5 16.5t143 68.5t91.5 150.5t39 259.5q3 72 3 121v22q-1 54 -1 99q0 155 2 319q1 41 1 81 q0 122 -5 239q-4 86 -26.5 135t-106.5 97v14q39 -2 77.5 -6t77.5 -4q51 0 106.5 5t110.5 7v-14q-63 -33 -85.5 -82.5t-26.5 -157.5q-6 -147 -6.5 -314t-1.5 -311q0 -45 -1 -90t-1 -90q0 -233 -45.5 -367.5t-126 -200t-191.5 -82t-242 -16.5q-94 0 -196.5 13.5t-189.5 66 t-145 153.5t-60 277z" />
<glyph unicode="V" horiz-adv-x="1964" d="M41 1151q0 90 43 189.5t119 182.5t176 136t213 53q16 0 75.5 -3t117 -20.5t89.5 -56.5q15 -18 16 -43q0 -29 -20 -67q-14 2 -29.5 15t-42 28.5t-70.5 29t-116 13.5q-100 0 -175 -41t-125 -100.5t-74.5 -129t-24.5 -127.5q0 -109 27.5 -154.5t74.5 -45.5q49 0 72 27.5 t23 66.5q0 84 -25 118.5t-53 55.5q29 0 60.5 -13.5t60 -37t47 -56t18.5 -73.5q0 -123 -72.5 -173.5t-158.5 -50.5q-43 0 -86 17.5t-79 53.5t-58.5 87t-22.5 119zM483 1315q-6 11 -6 26q1 29 21 71q30 64 127 153q0 -59 22 -121q55 -150 122 -315.5t124 -309.5 q51 -125 105.5 -250t107.5 -250h20q45 109 88 217.5t89 219.5q61 154 126.5 339t120.5 339q10 29 20.5 64.5t10.5 70.5q0 41 -20.5 72.5t-79.5 44.5l6 14q47 -4 102.5 -8t110.5 -4q53 0 109.5 4t113.5 8l-6 -14q-78 -33 -128 -104t-83 -136q-70 -147 -136.5 -313 t-123.5 -312q-31 -76 -64.5 -155.5t-75.5 -176t-92.5 -217t-111.5 -278.5q-10 -23 -25 -23q-16 0 -28 31q-31 78 -77 184.5t-95.5 219t-96.5 219t-80 184.5q-47 121 -103 250t-114 256z" />
<glyph unicode="W" horiz-adv-x="2609" d="M41 1174q0 90 43 189t119 182t176 136.5t213 53.5q16 0 75.5 -3t117 -20.5t89.5 -56.5q15 -18 16 -44q0 -29 -20 -67q-14 2 -29.5 15.5t-42 29t-70.5 28.5t-116 13q-100 0 -175 -41t-125 -100t-74.5 -129t-24.5 -127q0 -106 27.5 -153.5t74.5 -47.5q49 0 72 27.5t23 66.5 q0 82 -25 117t-53 57q29 0 60.5 -13t60 -36.5t47 -56.5t18.5 -74q0 -123 -72.5 -173t-158.5 -50q-43 0 -86 17.5t-79 53.5t-58.5 87t-22.5 119zM473 1372q14 53 44 101.5t118 72.5l8 -46t14 -46q55 -152 120 -317.5t128 -311.5q55 -127 108.5 -250.5t108.5 -250.5h21 q45 111 89 220t89 218q2 4 5 12t14.5 36t32 83t57.5 156q39 102 74.5 204.5t70.5 190.5q10 27 20.5 62.5t10.5 70.5q0 41 -21.5 73.5t-83.5 45.5l6 14q51 -4 106.5 -8t110.5 -4q53 0 110.5 5t117.5 7l-6 -14q-78 -33 -129.5 -104.5t-83.5 -135.5q-63 -133 -124 -280.5 t-116 -282.5q8 -18 15.5 -35.5t13.5 -34.5q51 -125 106 -251t111 -250h20q45 111 89 220t89 218q61 156 129 341t125 341q10 29 20.5 63.5t10.5 69.5q0 41 -21.5 73.5t-82.5 45.5l6 14q51 -4 106.5 -8t110.5 -4q53 0 111.5 4t115.5 8l-6 -14q-78 -33 -131 -103.5t-82 -136.5 q-66 -152 -136.5 -317.5t-129.5 -311.5q-31 -76 -66 -155.5t-77 -176t-92 -217t-113 -280.5q-10 -23 -27 -23q-16 0 -29 31q-25 61 -58.5 141t-72.5 167t-78.5 176.5t-74.5 168.5q-51 -121 -118 -274.5t-159 -384.5q-10 -23 -26 -23t-29 31q-31 78 -77 185.5t-96 220 t-98.5 219t-80.5 184.5q-33 76 -60.5 143.5t-55.5 134t-57.5 134t-64.5 145.5z" />
<glyph unicode="X" horiz-adv-x="1691" d="M41 2l14 21q66 25 132.5 70.5t111.5 111.5q217 311 430 620q12 16 23.5 34t23.5 34q-86 137 -179 277.5t-183 275.5q6 18 17 41.5t30.5 42t49.5 28.5q15 5 35 6q18 0 40 -5q23 -47 61.5 -112t82.5 -133.5t87 -136t74 -116.5q68 102 133.5 204.5t126.5 198.5 q27 39 46.5 81t19.5 81q0 37 -25 70v14q47 -4 106.5 -8t114.5 -4q53 0 110.5 5t114.5 7l-10 -14q-84 -33 -168 -99.5t-133 -132.5q-94 -125 -188.5 -254t-184.5 -256q20 -33 40 -64.5t38 -62.5q94 -154 187.5 -304t193.5 -304q45 -63 97.5 -118.5t129.5 -82.5l11 -16 q-63 4 -122 7t-116 3q-53 0 -110.5 -3t-104.5 -7v16q23 16 23 48q0 27 -14.5 61.5t-39.5 75.5q-88 147 -163.5 291.5t-163.5 291.5q-94 -139 -185.5 -283.5t-169.5 -287.5q-33 -61 -34 -104v-9q0 -56 47 -86v-14q-57 4 -118 9t-118 5q-53 0 -110.5 -5t-110.5 -9zM43 1163 q0 90 43 189.5t119 182.5t175 136t214 53q16 0 75.5 -3t116.5 -21q58 -18 90 -56q15 -18 16 -43q0 -29 -20 -67q-14 2 -29.5 15.5t-42 28.5t-70.5 28.5t-116 13.5q-100 0 -174.5 -41t-125 -100.5t-75 -129t-24.5 -126.5q0 -109 27.5 -155t74.5 -46q49 0 72 27.5t23 66.5 q0 84 -26 119t-52 55q27 0 59.5 -13t61 -36.5t47 -56.5t18.5 -74q0 -123 -72.5 -173t-158.5 -50q-43 0 -86 17.5t-79 53t-58.5 87t-22.5 118.5z" />
<glyph unicode="Y" horiz-adv-x="1734" d="M41 1176q0 90 43 189t119 182t176 136.5t213 53.5q16 0 75.5 -3t117 -20.5t89.5 -56.5q16 -18 16 -44q0 -29 -20 -67q-14 2 -29.5 15.5t-42 29t-70.5 28.5t-116 13q-100 0 -175 -41t-125 -100t-74.5 -129t-24.5 -127q0 -109 27.5 -155t74.5 -46q49 0 72 28t23 66 q0 84 -25 119t-53 56q29 0 60.5 -13.5t60 -37t47 -56.5t18.5 -74q0 -123 -72.5 -173t-158.5 -50q-43 0 -86 17.5t-79 53.5t-58.5 87t-22.5 119zM429 1459q5 28 25.5 54.5t55.5 49t82 30.5v-6q0 -42 26 -91q29 -52 60 -107q59 -106 121.5 -219t136.5 -218q76 96 151.5 204 t139.5 220q14 23 32.5 53.5t35 63.5t27.5 62.5t11 52.5q0 45 -24 80l-6 18q51 -4 91 -9t97 -5q55 0 98 10t105 12l-19 -14q-90 -39 -157.5 -120t-118.5 -159q-98 -143 -199.5 -294.5t-195.5 -297.5q-3 -84 -3 -168q0 -71 2 -141q5 -155 13 -311q4 -66 32.5 -117t90.5 -78 v-16q-59 4 -116.5 7t-115.5 3q-53 0 -106 -3t-105 -7v16q49 25 83 71t36 112q4 141 4 281v282q-94 158 -187 329t-196 322q-8 14 -8 32q0 8 1 16z" />
<glyph unicode="Z" horiz-adv-x="1751" d="M41 18q0 70 57.5 187t201.5 301t389 449.5t622 631.5l-4 6q-49 4 -116 5t-132.5 1h-118.5h-78q-332 0 -472 -108.5t-140 -286.5q0 -53 33.5 -73.5t62.5 -20.5q41 0 69.5 40t28.5 105q0 35 -10 58.5t-24 44.5q45 -16 86 -66.5t41 -115.5q0 -53 -21.5 -92.5t-52.5 -64 t-67 -35.5t-66 -11q-47 0 -92 16.5t-80 49t-57.5 80.5t-22.5 110q0 115 47 203t149 147q104 59 264 89q142 26 334 26h52q18 0 72.5 -1t127 -2t154.5 -1t153.5 -1t126 -1h70.5q23 0 23 -21q0 -8 -4.5 -16.5t-6.5 -10.5q-330 -352 -641 -719.5t-583 -762.5q-12 -16 -13 -23 q0 -29 85 -35q42 -3 117 -3t183 3q37 2 137.5 5.5t219.5 14.5t229.5 33.5t165.5 59.5q78 53 106.5 91t47.5 38q16 0 16 -18q0 -20 -15.5 -46t-35 -54.5t-38.5 -60.5t-28 -65q-8 -29 -35.5 -66.5t-105.5 -37.5q-31 0 -125 2t-201.5 4t-201.5 4t-127 2q-135 -2 -214 -4 t-145.5 -3t-145.5 -2t-214 -1q-8 0 -22.5 1t-14.5 21z" />
<glyph unicode="\" horiz-adv-x="563" d="M41 1647h55l426 -1649h-55z" />
<glyph unicode="_" horiz-adv-x="659" d="M0 -57h680v-41h-680v41z" />
<glyph unicode="`" horiz-adv-x="411" d="M41 1696q27 -6 57.5 -8t55.5 -2q23 0 52.5 3t49.5 7l98 -170q23 -39 13.5 -65.5t-48.5 -26.5q-45 0 -88 30.5t-73 71.5z" />
<glyph unicode="a" horiz-adv-x="1394" d="M33 0l10 8q57 16 103.5 55t74.5 97l402 839q4 16 4 29q0 39 -36 81q-38 44 -89 75l-4 10q39 -2 96 -4t100 -2h45l76 -168l397 -866q47 -106 150 -144v-10q-92 12 -182 12q-98 0 -193 -12v8q0 20 25.5 43t25.5 51q0 31 -14 56l-127 307q-53 4 -108.5 7t-110.5 3 q-57 0 -114.5 -3t-112.5 -7l-148 -334q-8 -18 -14 -33.5t-6 -31.5q0 -27 30 -58v-8q-35 4 -67.5 6t-67.5 2q-37 0 -73.5 -2t-71.5 -6zM492 532q45 -2 91 -3t93 -1q45 0 92 1t94 3v9l-174 403h-4l-192 -403v-9z" />
<glyph unicode="b" horiz-adv-x="1036" d="M33 0v12q39 18 74.5 66.5t37.5 93.5q6 109 7.5 201t1.5 200q0 106 -4.5 223t-8.5 224q-2 43 -20.5 82t-83.5 69v13q41 -4 90 -6t94 -2q82 0 157 1t146 3q39 0 93.5 -13.5t102.5 -44t82 -80.5q32 -48 32 -116v-8q0 -94 -57.5 -162t-129.5 -107q59 -12 120.5 -32.5 t104.5 -49.5q68 -47 100 -109.5t32 -129.5q0 -70 -45.5 -151t-133.5 -128q-61 -33 -140 -40t-148 -7q-31 0 -76 1t-91 2t-86 2t-61 1q-41 0 -95 -2t-95 -6zM297 598q0 -82 2 -172t2 -176v-57q0 -76 48 -101.5t198 -25.5q68 0 126 15t95 42q47 35 61.5 82t14.5 84 q0 57 -21.5 111.5t-66.5 97.5t-116 69.5t-169 26.5q-10 0 -32.5 1t-49.5 2t-51.5 1h-40.5zM301 897q0 -55 3 -109.5t3 -119.5q35 0 87 -2t79 -2q35 0 72 13t66.5 43t49 79t19.5 119q0 61 -22.5 102t-57.5 64.5t-78 32.5t-84 9q-31 0 -59.5 -3t-59.5 -5q-12 -23 -11 -49 t-1 -53q-4 -33 -5 -61.5t-1 -57.5z" />
<glyph unicode="c" horiz-adv-x="1320" d="M33 590q0 127 52 239.5t147.5 197.5t227.5 135t294 50q63 0 138 -9t144 -19q33 -6 63.5 -12.5t63.5 -6.5q12 0 21.5 4.5t19.5 4.5q8 0 11.5 -19.5t3.5 -48.5t3 -63.5t3 -59.5q0 -8 -2.5 -16.5t-10.5 -8.5q-6 0 -16 14.5t-28.5 35t-46 44t-66.5 40.5q-59 27 -128 38 t-141 11h-13q-125 0 -227 -37q-108 -39 -183.5 -107.5t-115.5 -163t-40 -204.5q0 -111 45 -213.5t122 -180t179 -123.5t215 -46q49 0 109.5 7t122 21.5t118 38t94.5 55.5q25 20 42.5 43t21.5 23q12 0 12 -8q0 -14 -23.5 -55t-39.5 -72q-18 -37 -62 -53 q-102 -45 -206.5 -62.5t-231.5 -17.5q-143 0 -269 47t-220.5 129t-148.5 192.5t-54 235.5z" />
<glyph unicode="d" horiz-adv-x="1441" d="M33 1180v8q41 -4 105.5 -6t109.5 -2q66 0 116 2t100 5t106 5t132 2q145 0 273.5 -38t224.5 -108.5t152.5 -171t56.5 -225.5q0 -141 -56.5 -261t-159.5 -207t-249.5 -137t-327.5 -50q-84 0 -182 7t-184 7q-43 0 -99.5 -2t-99.5 -6v14q41 16 83 59.5t44 88.5v139v272 q0 109 -3 226t-7 223q-4 41 -40 81t-95 75zM326 582q0 -106 3 -215t11 -215q0 -18 2 -25q49 -33 138 -44t222 -11q111 0 209.5 41t171 112.5t114.5 167.5t42 205q0 111 -41 219.5t-117 179.5q-72 70 -171 98.5t-208 28.5q-57 0 -114.5 -1t-106.5 -4t-86 -9t-55 -16 q-6 -18 -7 -39t-1 -37q-4 -57 -5 -118.5t-1 -125.5v-192z" />
<glyph unicode="e" horiz-adv-x="1046" d="M33 1194q20 -2 55 -4t72 -5t71.5 -5t55.5 -2q23 0 76 2t110 4q57 4 114.5 7t106.5 3q25 0 52.5 -1t51 -4t40 -9t16.5 -17q0 -45 7 -71.5t7 -61.5q0 -12 -8 -12q-12 0 -17 13t-16 28q-20 25 -81.5 49.5t-200.5 24.5q-41 0 -84 -4.5t-119 -8.5q-8 -23 -9 -48t-5 -52 q-6 -88 -7.5 -183.5t-1.5 -185.5q57 0 110.5 -2t107.5 -2q18 0 35.5 1t35.5 1q47 2 96.5 16.5t90.5 67.5h10q-2 -35 -6 -59.5t-4 -63.5v-53t2 -55h-13q-27 45 -84 60.5t-108 19.5q-63 4 -133 4h-140v-4q0 -106 5.5 -194.5t9.5 -194.5q2 -41 32.5 -65t73.5 -38t93.5 -18 t91.5 -4q59 0 119.5 7t109.5 42q59 41 94 85t51 44q14 0 15 -15q0 -14 -11.5 -32.5t-25.5 -40t-29.5 -45t-21.5 -45.5q-4 -20 -19.5 -39t-79.5 -19h-247h-102.5t-76 1t-69.5 1h-84q-45 0 -100.5 -4t-96.5 -8v23q20 8 42 27.5t39.5 43t29.5 50t12 49.5q2 106 2 191v194 q0 106 -3 223t-11 223q-2 43 -31 84t-96 70z" />
<glyph unicode="f" horiz-adv-x="901" d="M33 1200q20 -2 55 -4t72 -5t72 -5t55 -2q23 0 76 2t110 4t114.5 6t106.5 4q25 0 52.5 -1t51 -4t40 -9t16.5 -17q0 -47 7 -73.5t7 -59.5q0 -12 -8 -12q-12 0 -17 12.5t-16 26.5q-20 27 -81.5 51.5t-200.5 24.5q-41 0 -84 -4.5t-119 -8.5q-8 -20 -9 -46.5t-5 -55.5 q-2 -29 -2 -57.5v-57.5q0 -57 1 -114.5t1 -116.5q57 0 112.5 -3t108.5 -3q14 0 26.5 1t26.5 1q51 2 95 8t85 57h17q-4 -35 -8.5 -55t-4.5 -59q0 -37 2.5 -45.5t6.5 -47.5h-23q-27 45 -76 59.5t-102 16.5q-23 2 -47.5 2h-48.5q-47 0 -92 -1h-31q-29 0 -58 1q0 -106 4.5 -233 t10.5 -230q2 -45 25.5 -80.5t72.5 -54.5v-12q-49 4 -94 6t-90 2t-88 -2t-82 -6v12q39 16 65.5 49t28.5 78q2 109 4 222.5t2 222.5t-3 223.5t-11 222.5q-2 43 -31 84t-96 70z" />
<glyph unicode="g" horiz-adv-x="1355" d="M33 590q0 127 52 239.5t147.5 197.5t227.5 135t294 50q63 0 138 -9t144 -19q33 -6 61.5 -19.5t59.5 -13.5q27 0 40 2t24 2q6 0 6 -10q0 -8 -1 -19.5t-1 -27.5q0 -29 2 -59.5t2 -55.5q0 -8 -2 -26.5t-8 -18.5t-19.5 17.5t-34 42t-50.5 50t-68 42.5q-115 51 -261 51h-13 q-125 0 -227 -37q-108 -39 -183.5 -107.5t-115.5 -163t-40 -204.5q0 -111 42 -214.5t113.5 -183t170 -128t210.5 -48.5q63 0 145.5 20.5t162.5 47.5q29 8 34 36.5t9 57.5q-4 47 -4 94t-5 88q-4 61 -19 94t-75 68v10q41 -2 86 -5t90 -3q41 0 77 4t79 6l-2 -10 q-49 -23 -58.5 -73t-11.5 -97q-6 -74 -7 -131t-1 -135q0 -8 -3 -26.5t-11 -22.5q-27 -8 -63 -17.5t-66 -19.5q-86 -31 -177.5 -43t-197.5 -12q-143 0 -269 47t-220.5 129t-148.5 192.5t-54 235.5z" />
<glyph unicode="h" horiz-adv-x="1366" d="M33 1184v8q41 -4 87 -6t89 -2t87 3t87 5v-8q-51 -23 -67.5 -73t-20.5 -95q-6 -57 -7 -116.5t-1 -119.5v-118q100 -2 200.5 -5.5t202.5 -3.5q190 0 387 6q-4 90 -6 182.5t-6 180.5q-4 45 -20.5 86t-75.5 76v10q39 -2 85 -5t91 -3q43 0 86 3t88 5v-10q-51 -20 -68.5 -71.5 t-21.5 -96.5q-4 -57 -5 -118.5t-1 -125.5v-192q0 -215 12 -430q2 -47 25.5 -82t72.5 -56v-10q-96 6 -186 6q-88 0 -170 -6v10q41 18 67.5 50t28.5 79q4 109 4 217.5v216.5v13q-197 6 -387 6q-203 0 -403 -6v-10q0 -106 4 -215t8 -216q4 -45 26.5 -80.5t71.5 -54.5v-12 q-47 4 -93 6t-91 2q-43 0 -87 -2t-83 -6v12q39 16 66.5 49t29.5 78q2 109 2 217.5v216.5q0 106 -3 223t-9 224q-2 45 -19.5 86t-76.5 78z" />
<glyph unicode="i" horiz-adv-x="430" d="M33 1184v8q41 -4 87 -6t89 -2t87 3t87 5v-8q-51 -23 -67.5 -73t-20.5 -95q-6 -57 -7 -119.5t-1 -126.5v-192q0 -106 4 -215t8 -216q4 -45 26.5 -80.5t71.5 -54.5v-12q-47 4 -93 6t-91 2q-43 0 -87 -2t-83 -6v12q39 16 66.5 49t29.5 78q2 109 2 217.5v216.5q0 106 -3 223 t-9 224q-2 43 -19.5 85t-76.5 79z" />
<glyph unicode="j" horiz-adv-x="430" d="M-139 -184q0 8 10 10q76 27 137.5 58.5t95.5 107.5q20 47 33 105.5t19 122t8 127t2 122.5v119q0 106 -4 222t-10 222q-4 41 -34 84t-89 78v12q41 -2 100 -6t104 -4q41 0 81 4t83 6v-10q-51 -20 -64.5 -71.5t-17.5 -98.5q-4 -49 -4 -99v-104v-151v-211q0 -141 -8 -260 t-53 -201q-33 -61 -87 -98t-112 -58q-41 -18 -79 -30.5t-76 -12.5q-10 0 -22.5 3t-12.5 12z" />
<glyph unicode="k" horiz-adv-x="1320" d="M33 1186v10q41 -4 87 -6t89 -2t87 2t87 6v-10q-51 -23 -67.5 -72t-20.5 -96q-6 -59 -7 -127t-1 -133v-129q102 88 209.5 190.5t189.5 194.5q27 33 46.5 67.5t19.5 67.5q0 23 -13 43l11 10q39 -4 80.5 -7t84.5 -3t90.5 4t96.5 6l-12 -10q-74 -23 -145 -73t-124 -95 q-88 -78 -178 -162t-176 -166q70 -82 158 -176t170 -184q111 -121 209 -210t194 -89q35 0 46 5t28 5q12 0 14 -3t2 -7q0 -8 -52 -27.5t-132 -19.5q-84 0 -144.5 23.5t-108.5 62.5t-92 90t-93 104q-76 86 -151 170t-155 154l-10 -8q-14 -16 -30.5 -30.5t-32.5 -31.5 q0 -94 4 -187t8 -185q4 -45 26.5 -81t71.5 -57v-12q-47 4 -93 6t-91 2q-43 0 -87 -2t-83 -6v12q39 16 66.5 49t29.5 78q2 109 2 217.5v216.5q0 109 -3 226t-9 223q-2 41 -19.5 84t-76.5 78z" />
<glyph unicode="l" horiz-adv-x="978" d="M33 14q39 16 76.5 72.5t42.5 101.5q2 109 2 194v193q0 109 -4.5 223.5t-8.5 223.5q-2 41 -19.5 84t-76.5 78v10q41 -2 86 -5t90 -3q43 0 86 3t88 5v-10q-51 -20 -67.5 -71.5t-20.5 -96.5q-6 -57 -7 -118.5t-1 -125.5v-192q0 -109 3 -195t9 -195q2 -39 23.5 -65.5 t54.5 -40.5t74 -20.5t84 -6.5q59 0 133 15.5t125 50.5q29 20 49 45t34.5 46.5t26 35.5t21.5 14q6 0 8 -7t2 -11q0 -14 -9 -36t-21.5 -46.5t-24.5 -50t-19 -47.5q-8 -20 -23 -39t-44 -19q-51 -4 -106.5 -7t-106.5 -3q-61 0 -107.5 2t-87.5 3t-82 3t-92 2q-41 0 -94 -4t-94 -6 z" />
<glyph unicode="m" horiz-adv-x="1728" d="M33 0l10 8q57 16 92 68.5t43 116.5l133 847v6q-1 34 -23 68q-24 37 -79 70v10q41 -2 80 -4t84 -2l487 -928h31l369 760l79 168q43 0 81 2t83 6v-10q-53 -23 -77 -74q-18 -38 -19 -72q0 -11 2 -22l143 -862q10 -53 50 -91t94 -57v-10q-45 8 -91 11t-92 3q-49 0 -98 -3 t-96 -11v10q0 8 12 14.5t26.5 15.5t24 24.5t4.5 41.5l-112 727h-8l-394 -823q-10 -16 -18 -16q-4 0 -8 6t-12 14q-8 12 -20.5 35t-55.5 100.5t-129 234.5t-242 439l-14 -4l-101 -657q-2 -8 -2 -29q0 -41 20.5 -71.5t69.5 -47.5l5 -12q-33 4 -92.5 6t-94.5 2q-37 0 -73.5 -2 t-71.5 -6z" />
<glyph unicode="n" horiz-adv-x="1339" d="M33 1202q35 -2 81 -6t85 -4l909 -934h10q2 80 2 160v162q0 109 -3 223.5t-9 222.5q-2 41 -14.5 84t-73.5 78v12q31 -4 57.5 -8t55.5 -4q43 0 87 2t87 6v-10q-51 -23 -68.5 -72t-19.5 -96q-6 -57 -7.5 -118.5t-1.5 -125.5v-192q0 -72 -2 -165t-2 -184q0 -45 1 -87t3 -76 q2 -57 2 -77t-14 -20q-10 0 -49 43l-909 914h-11q-4 -29 -4 -58.5v-58.5q0 -59 2 -118.5t2 -112.5q0 -106 3.5 -215t7.5 -215q4 -45 26.5 -81t73.5 -57v-12q-47 4 -93 6t-93 2q-43 0 -57.5 -1t-55.5 -5v12q39 16 66.5 49t27.5 78q4 109 4 217.5v217.5q0 72 1 148.5t1 152.5 v76.5t-2 72.5v10q-4 39 -24.5 78t-77.5 74z" />
<glyph unicode="o" horiz-adv-x="1449" d="M33 590q0 127 54 236.5t148.5 192.5t220.5 130t269 47q166 0 295 -47t217 -128t134 -190.5t46 -236.5q0 -133 -54 -244.5t-148.5 -192.5t-220.5 -126t-269 -45t-269 47t-220.5 129t-148.5 192.5t-54 235.5zM207 629q0 -111 38 -214.5t107.5 -183t163.5 -127t209 -47.5 t212 34t169 97.5t113 152.5t41 200q0 137 -41 245.5t-113 184.5t-169 115.5t-212 39.5t-209 -35.5t-163.5 -102t-107.5 -158t-38 -201.5z" />
<glyph unicode="p" horiz-adv-x="972" d="M33 0v12q39 18 76.5 50t42.5 77q2 109 2 217.5v216.5q0 106 -4.5 223t-8.5 224q-2 43 -20.5 82t-83.5 69v13q41 -4 90 -6t94 -2q82 0 158 6t149 6q51 0 122 -14.5t124 -43.5q82 -43 124 -117.5t42 -144.5q0 -84 -53 -161.5t-127 -120.5q-72 -43 -150 -52.5t-149 -9.5 q-18 0 -44 2t-49.5 6.5t-40 12.5t-16.5 20q0 16 8 17q31 0 68 -8.5t68 -8.5q63 0 131.5 21.5t113.5 64.5q43 41 58.5 100.5t15.5 125.5v12q0 51 -32 101q-35 57 -97 91q-45 27 -100.5 36t-106.5 9q-31 0 -59.5 -3t-59.5 -5q-12 -23 -11 -49.5t-1 -52.5q-6 -57 -7 -119.5 t-1 -126.5v-192q0 -106 2 -215t10 -216q4 -59 26.5 -87.5t72.5 -47.5v-12q-47 4 -93.5 6t-93.5 2q-41 0 -95 -2t-95 -6z" />
<glyph unicode="q" horiz-adv-x="1490" d="M33 575q0 125 57 237t154.5 197t226.5 134t272 49q166 0 297 -49t220.5 -132t136.5 -192.5t47 -228.5q0 -104 -34 -195.5t-95.5 -163t-146.5 -124t-185 -80.5q139 -37 274.5 -85t272.5 -90t279.5 -71t293.5 -29q74 0 143.5 17.5t133.5 60.5q14 10 22 10q4 0 4 -2t-3 -7 t-15 -13q-98 -76 -225 -120t-252 -44q-211 0 -393.5 63.5t-350.5 141.5q-102 49 -207.5 90t-236.5 47q-141 6 -267 48t-220.5 117t-148.5 179t-54 235zM207 614q0 -117 41 -217t113.5 -173.5t174 -115.5t222.5 -42q236 0 377 136t141 369q0 133 -42 235.5t-114.5 172.5 t-170 105.5t-208.5 35.5q-123 0 -222 -38t-167.5 -104.5t-106.5 -159.5t-38 -204z" />
<glyph unicode="r" horiz-adv-x="1402" d="M33 -2v14q39 16 76.5 48t42.5 77q2 109 2 217.5v216.5q0 109 -4.5 225.5t-8.5 223.5q-2 41 -20.5 81t-83.5 68v15q41 -4 90 -7t94 -3q82 0 158 7t149 7q51 0 125 -14.5t127 -40.5q84 -45 122 -120t38 -147q0 -84 -44 -157.5t-116 -118.5q-18 -8 -36.5 -17.5t-41.5 -13.5 q55 -76 122 -171t141.5 -179t154.5 -140.5t164 -56.5q18 0 36.5 2t39.5 2q10 0 10 -8q0 -10 -17.5 -20.5t-42 -17.5t-50 -11t-41.5 -4q-135 0 -230.5 60.5t-174.5 149.5t-149.5 189.5t-156.5 182.5h-86q-20 2 -56 -1.5t-67 -5.5q0 -96 2 -192t10 -193q4 -59 26.5 -86.5 t72.5 -48.5v-12q-47 2 -93.5 5t-93.5 3q-41 0 -95 -3t-95 -5zM299 600q35 0 82 1t72 1q189 0 257 70q65 66 64 190v15v12q0 49 -28 103q-32 60 -97 95q-43 25 -101.5 31t-109.5 6q-31 0 -59.5 -3t-59.5 -5q-12 -23 -11 -49t-1 -53q-6 -55 -7 -112.5t-1 -117.5v-184z" />
<glyph unicode="s" horiz-adv-x="821" d="M33 238q0 12 7 30.5t21 18.5q8 0 20.5 -43t53.5 -84q20 -23 52 -42.5t68 -32.5t73 -21.5t63 -8.5q41 0 87 13.5t84 40t62.5 65.5t24.5 92q0 70 -41 122t-104.5 97t-137 86t-138 88.5t-106.5 103.5t-42 132q0 53 20.5 106.5t64.5 96.5t110.5 70.5t158.5 27.5 q53 0 106.5 -12.5t104.5 -12.5q23 0 38 8.5t42 8.5q10 0 10 -14q0 -53 7.5 -101.5t7.5 -99.5q0 -6 -4.5 -15.5t-8.5 -9.5q-8 0 -18 13.5t-21.5 32t-26 39t-30.5 32.5q-47 37 -111.5 52.5t-115.5 15.5q-76 0 -141.5 -49.5t-65.5 -112.5q0 -61 43 -111.5t106.5 -95.5t138 -89 t140 -94.5t108.5 -111.5t45 -139q0 -63 -24.5 -124t-77.5 -109t-134 -77.5t-192 -29.5q-74 0 -134 14t-130 33q-33 6 -41 29.5t-8 58.5q0 2 -7 39t-7 74z" />
<glyph unicode="t" horiz-adv-x="1253" d="M33 1012q2 18 27.5 45.5t37.5 52.5q12 23 27.5 48.5t19.5 47.5h23q12 -12 33.5 -18t62.5 -8q102 -2 204.5 -2h205.5q98 0 207.5 3t214.5 7q37 0 62.5 9t47.5 15h15q-8 -39 -44 -92t-47 -98q-4 -10 -10 -13t-10 -3q-8 0 -8 21.5t-4 41.5q-6 20 -34 31.5t-48 13.5 q-70 2 -146.5 2h-146.5l-10 -102q-4 -59 -5 -121t-1 -125v-193q0 -109 3 -215t11 -215q2 -45 25.5 -79.5t72.5 -55.5v-12q-47 2 -93 5t-93 3q-43 0 -86 -3t-82 -5v12q39 16 66.5 49t27.5 78q2 109 3 217.5t1 216.5q0 109 -1 234t-3 231v80q-84 0 -167 -3t-163 -19 q-27 -4 -60.5 -17.5t-59.5 -32.5q-18 -14 -34 -27t-30 -13q-12 0 -12 8z" />
<glyph unicode="u" horiz-adv-x="1226" d="M33 1180v10q41 -2 87 -5t89 -3t87 3t87 5v-10q-51 -23 -67.5 -73t-20.5 -95q-6 -57 -7 -119t-1 -125v-193q0 -35 1 -76.5t5 -131.5q2 -104 32.5 -166t77 -94.5t104.5 -42t118 -9.5q88 0 156.5 11.5t115.5 48.5t73.5 104.5t30.5 181.5q2 63 2.5 100.5t0.5 69.5q0 61 1 126 t1 128q0 49 -1 97.5t-4 95.5q-2 59 -20 94t-88 68v10q33 -2 63.5 -4t63.5 -2q41 0 85 2t89 6v-10q-51 -23 -69.5 -57.5t-22.5 -110.5q-4 -102 -4 -220v-219q0 -33 -1 -62.5t-1 -61.5q0 -164 -37 -258.5t-101.5 -140.5t-155 -57t-194.5 -11q-76 0 -158.5 9t-152.5 46 t-116 108.5t-50 194.5q-2 100 -3 145t-1 78q0 78 2 164t2 168v61.5t-2 59.5q-2 41 -19.5 84t-76.5 78z" />
<glyph unicode="v" horiz-adv-x="1431" d="M33 1190q43 -2 89 -6t91 -4q41 0 85 2t89 4l6 -12q-20 -10 -29.5 -31t-9.5 -43q0 -45 19 -88q43 -106 97 -221t99 -218q41 -88 85 -175t87 -175h17q35 76 70.5 152t70.5 153q51 106 103.5 237.5t97.5 238.5q10 20 17 44.5t7 49.5q0 29 -16 51t-66 31l7 10q39 -2 83 -5 t89 -3q41 0 86 3t92 5l-4 -10q-61 -23 -102.5 -73t-67.5 -95q-55 -102 -108.5 -219t-100.5 -218q-25 -53 -52.5 -109t-61.5 -124t-74 -152t-89 -194q-6 -16 -20 -16q-12 0 -25 22q-25 53 -61.5 128t-76.5 153.5t-77.5 153.5t-64.5 128q-49 106 -109.5 227t-116.5 228 q-20 43 -47.5 83t-105.5 75z" />
<glyph unicode="w" horiz-adv-x="1949" d="M33 1196q43 -4 89 -6t91 -2q43 0 89 1t91 3l4 -10q-37 -23 -37 -76q0 -20 4.5 -43t14.5 -45q45 -106 97 -222t104 -218q45 -90 87 -176.5t87 -174.5h16q35 76 72 153t71 152q2 6 5.5 11.5t7.5 13.5l-6 12q-51 109 -115 229t-119 228q-23 41 -49.5 82t-104.5 76l-2 12 q41 -4 87.5 -7t91.5 -3q88 0 180 6l6 -12q-41 -23 -41 -76q0 -43 23 -88q29 -68 59.5 -139.5t64.5 -143.5q29 72 59 143.5t58 135.5q8 18 16.5 42.5t8.5 49.5q0 29 -17.5 52.5t-68.5 31.5l8 8q41 -4 84 -6t90 -2q43 0 89 3t91 5l-4 -8q-61 -23 -103 -73t-69 -95 q-49 -92 -97 -195.5t-93 -199.5q6 -12 11 -24.5t9 -25.5l87 -174t91 -176h17l141 307q49 106 104.5 237.5t100.5 240.5q8 18 16 42.5t8 49.5q0 29 -17 51.5t-67 32.5l5 10q41 -4 86 -6t88 -2q45 0 92 2t92 6l-4 -10q-66 -23 -108 -72t-64 -96q-53 -106 -109.5 -222 t-105.5 -218q-25 -53 -52.5 -108.5t-61.5 -123t-75 -152.5t-92 -196q-6 -16 -20 -16t-23 20q-18 43 -46 99.5t-59.5 118t-63.5 124t-60 117.5q-43 -84 -96.5 -192.5t-126.5 -270.5q-8 -14 -23 -14q-14 0 -20 20q-25 55 -63 130t-79 155t-78.5 154.5t-64.5 127.5 q-53 109 -114.5 229t-119.5 228q-20 41 -46.5 82t-106.5 76z" />
<glyph unicode="x" horiz-adv-x="1361" d="M33 2l12 14q53 16 105.5 49t89.5 78q88 109 175 217.5t171 217.5q10 12 19 24t20 23q-70 96 -146 194.5t-147 192.5q-29 43 -70 90t-125 82l-8 10q43 -2 90 -5t92 -3q41 0 90.5 3t90.5 5l-5 -10q-16 -8 -16 -31q-2 -27 21.5 -63.5t44.5 -71.5q41 -63 87 -134t93 -141 q111 143 209 281q20 29 36.5 57.5t16.5 57.5q0 27 -21 49v8q39 -4 87.5 -6t91.5 -2t90 3t92 5l-10 -8q-66 -23 -133.5 -70t-106.5 -94q-76 -86 -152.5 -176t-148.5 -180q14 -20 30.5 -43t32.5 -45q76 -109 152 -213.5t154 -212.5q35 -45 77.5 -83t106.5 -59l8 -10 q-100 6 -192 6q-43 0 -88 -2t-82 -4v10q16 12 16 33q0 33 -43 96q-72 102 -133.5 205t-130.5 205q-76 -96 -148.5 -197.5t-136.5 -201.5q-29 -48 -29 -78q0 -40 39 -62v-10q-45 2 -94 6t-94 4t-91 -4t-89 -6z" />
<glyph unicode="y" horiz-adv-x="1300" d="M33 1192q45 -4 95 -7t97 -3q45 0 90 5t91 7l-9 -12q-10 -6 -20 -24q-10 -19 -10 -34q0 -30 27 -70q28 -42 55 -81q49 -76 99 -155t109 -150q61 68 122 142.5t112 152.5q23 33 53.5 82t30.5 81q0 31 -19 56l-4 12q39 -2 72 -6t78 -4t81 6t85 10l-17 -10q-72 -27 -126 -84 t-95 -111q-80 -102 -162 -206.5t-157 -206.5q-2 -31 -2 -62v-61q0 -156 12 -314q2 -45 25.5 -79.5t72.5 -55.5v-12q-47 2 -93 5t-93 3q-43 0 -86 -3t-82 -5v12q39 16 66.5 49t27.5 78q2 100 3 197.5t1 197.5q-78 109 -152.5 229t-156.5 226q-35 45 -79 98.5t-132 94.5z" />
<glyph unicode="z" horiz-adv-x="1409" d="M33 12q0 4 13 19.5t52 57.5t110 117t184.5 195.5t276 294.5t386.5 414l-2 6q-41 2 -94.5 3t-106.5 1h-96h-62q-180 0 -292.5 -13t-168.5 -38q-33 -14 -49 -31.5t-23 -32t-9 -24.5t-11 -10q-2 0 -7 11t-5 15q0 35 8 74t8 84q0 20 12.5 28.5t59.5 8.5q59 0 131 -1t144.5 -2 t138 -2t112.5 -1q23 0 107 -1t179 -1t177 -1t103 -1q20 0 20 -15q0 -6 -4 -12l-4 -6l-987 -1038q-8 -12 -8 -17q0 -14 41 -20t139 -6q27 0 59.5 1t71.5 1q27 2 107.5 4t176 10t184.5 23.5t134 42.5q61 37 85 63.5t40 26.5q12 0 12 -13q0 -14 -12 -32.5t-27.5 -39t-31 -42 t-21.5 -43.5q-8 -20 -29.5 -47t-87.5 -27q-25 0 -100.5 1t-161.5 3t-161.5 3t-102.5 1q-109 -2 -172 -3t-116.5 -2t-117 -1h-172.5h-20t-10 14z" />
<glyph unicode="&#xa3;" horiz-adv-x="1275" d="M41 0v33q25 12 51.5 39.5t48 61.5t37 71t15.5 69q2 78 3 144.5t1 131v131.5v144q0 115 -9.5 221.5t-13.5 199.5t7.5 172t52 136.5t119.5 93t212 44.5q70 4 141.5 9t133.5 5q31 0 65.5 -1t64 -5t50 -12.5t20.5 -24.5q0 -66 8.5 -104.5t8.5 -85.5q0 -18 -13 -19 q-14 0 -20 18.5t-20 38.5q-25 35 -101 71t-250 36q-139 0 -197.5 -64.5t-73.5 -164t-7 -221t2 -236.5q90 0 180 -4t174 0q59 2 119.5 22.5t112.5 96.5h14q-4 -51 -9 -85t-5 -90v-44v-32.5t1 -33t3 -45.5h-15q-33 63 -103.5 85.5t-135.5 26.5q-78 6 -164 7.5t-172 1.5v-7 q0 -154 4 -277.5t12 -277.5q4 -57 41 -93t90.5 -55t114.5 -25.5t115 -6.5q72 0 147.5 10.5t138.5 61.5q37 29 66 61.5t50.5 59t36.5 44t24 17.5q18 0 18 -18q0 -20 -13.5 -47t-32 -58.5t-35.5 -64.5t-26 -66q-8 -29 -26.5 -55.5t-95.5 -26.5h-310h-126t-93 1t-86 1h-106 q-53 0 -123 -6t-121 -10z" />
<glyph unicode="&#xad;" horiz-adv-x="774" d="M41 573v105h692v-105h-692z" />
<glyph unicode="&#x2000;" horiz-adv-x="874" />
<glyph unicode="&#x2001;" horiz-adv-x="1748" />
<glyph unicode="&#x2002;" horiz-adv-x="874" />
<glyph unicode="&#x2003;" horiz-adv-x="1748" />
<glyph unicode="&#x2004;" horiz-adv-x="582" />
<glyph unicode="&#x2005;" horiz-adv-x="437" />
<glyph unicode="&#x2006;" horiz-adv-x="291" />
<glyph unicode="&#x2007;" horiz-adv-x="291" />
<glyph unicode="&#x2008;" horiz-adv-x="218" />
<glyph unicode="&#x2009;" horiz-adv-x="349" />
<glyph unicode="&#x200a;" horiz-adv-x="97" />
<glyph unicode="&#x2010;" horiz-adv-x="774" d="M41 573v105h692v-105h-692z" />
<glyph unicode="&#x2011;" horiz-adv-x="774" d="M41 573v105h692v-105h-692z" />
<glyph unicode="&#x2012;" horiz-adv-x="774" d="M41 573v105h692v-105h-692z" />
<glyph unicode="&#x2013;" horiz-adv-x="1106" d="M41 573v105h1024v-105h-1024z" />
<glyph unicode="&#x2014;" horiz-adv-x="2130" d="M41 573v105h2048v-105h-2048z" />
<glyph unicode="&#x2018;" d="M41 1509q0 27 4 60t14.5 61.5t27.5 49t44 20.5t56.5 -10.5t55 -27.5t42 -40t16.5 -49q0 -53 -26.5 -94t-79.5 -41q-23 0 -54 10q-10 -49 -3 -68.5t40 -42.5l-55 -30q-45 27 -63.5 67.5t-18.5 134.5z" />
<glyph unicode="&#x2019;" d="M41 1573q0 27 16.5 49.5t42 39.5t55 27.5t56.5 10.5t44 -20.5t27.5 -49t14.5 -61.5t4 -60q0 -94 -18.5 -135t-63.5 -67l-55 30q33 23 40 42.5t-3 68.5q-31 -10 -54 -10q-53 0 -79.5 41t-26.5 94z" />
<glyph unicode="&#x201c;" horiz-adv-x="659" d="M41 1509q0 27 4 60t14.5 61.5t27.5 49t44 20.5t56.5 -10.5t55 -27.5t42 -40t16.5 -49q0 -53 -26.5 -94t-79.5 -41q-23 0 -54 10q-10 -49 -3 -68.5t40 -42.5l-55 -30q-45 27 -63.5 67.5t-18.5 134.5zM358 1507q0 27 4.5 59.5t14.5 62.5t27.5 49.5t44.5 19.5t56.5 -10.5 t55 -28t41.5 -40t16 -48.5q0 -51 -26.5 -93t-79.5 -42q-23 0 -53 10q-10 -49 -3 -69.5t40 -41.5l-56 -30q-45 27 -63.5 67.5t-18.5 134.5z" />
<glyph unicode="&#x201d;" horiz-adv-x="665" d="M41 1573q0 27 16.5 49.5t42 39.5t55 27.5t56.5 10.5t44 -20.5t27.5 -49t14.5 -61.5t4 -60q0 -94 -18.5 -135t-63.5 -67l-55 30q33 23 40 42.5t-3 68.5q-31 -10 -54 -10q-53 0 -79.5 41t-26.5 94zM365 1571q0 27 16 49t42 39.5t55.5 28t56.5 10.5t44 -19.5t27 -49.5 t14.5 -62.5t4.5 -59.5q0 -94 -18.5 -135t-63.5 -67l-56 30q33 20 40.5 41t-3.5 70q-31 -10 -53 -10q-53 0 -79.5 42t-26.5 93z" />
<glyph unicode="&#x202f;" horiz-adv-x="349" />
<glyph unicode="&#x205f;" horiz-adv-x="437" />
<glyph unicode="&#xe000;" horiz-adv-x="1198" d="M0 0v1198h1198v-1198h-1198z" />
</font>
</defs>
</svg>
